<svg version="1.2" xmlns="http://www.w3.org/2000/svg" viewBox="0 0 1860 2168" width="500" height="583">
	<title>kodam-iskandar-muda-cdr</title>
	<defs>
		<clipPath clipPathUnits="userSpaceOnUse" id="cp1">
			<path d="m-806-152h3508v2480h-3508z"/>
		</clipPath>
	</defs>
	<style>
		.s0 { fill: #ffffff } 
		.s1 { fill: #000000 } 
		.s2 { fill: #00923f } 
	</style>
	<g id="Page 1" clip-path="url(#cp1)">
		<g id="Group 1">
		</g>
		<g id="Group 3">
			<g id="Group 4">
				<path id="Object 5" class="s0" d="m947.9 2151.2c-423-92.4-881-464.5-881-938.5v-1066h298.7c132-73.6 344-121.5 582.3-121.5 238.4 0 450.4 47.9 582.4 121.5h298.7v1066c0 474-458 846.1-881.1 938.5z"/>
				<path id="Object 6" fill-rule="evenodd" class="s1" d="m1055.4 1481.2c-5 50.3 15.3 107.2 6.9 155.1 31.1-21.1 70.5-33.3 108.6-27.5 60.7 9.4 114.3 39.9 107.4 84.8 2.5 8.7 4.9 7.4 1 29.2-3.9 21.8-32.8 58.2-64.6 56.3-16.8-1-30.7-9.6-45.1-15.7-7.5 10.6-13.1 22.1-19 37-33.5 83.4-61.6 203.4-158.5 215-120.6 14.5-161.3-99-169-180.7-4.2-45.2 4.4-90.4 4.3-135.7-0.1-42.3-7.8-84.6-8-126.9-4.5 27-9.4 49.2-13.1 61.4-26.7 88.1-65.7 160.7-103.6 199.9-21.9-49.9-33.1-131.6-27.3-223.5 0.9-14 3.6-39.8 8.5-70.2-15.9-35-40.9-95.1-50.2-108.2-54.9 51.2-84 108.2-166.5 132.2-37.9 11.1-107.1 0.2-121.6-36.2-25.5-64 29.8-138 17-205.7-10.8-57.7-77.1-98.4-93.1-154.9-8.2-28.7 41.6-78.8 38.8-108.5-5.9-62.3-60.6-100.1-62.3-162.7-1.1-40.7 41.1-83.1 39.8-123.8-1.8-53.3-102.6-125.9-53.1-146.1 135.8-55.3 305.7 131.2 352.6 273.9 1.8-14.4 4.9-28.9 9.4-43.4 32-101.8 125.7-170.5 223.1-171.8 47-0.6 93.6 14.9 130.1 45 36.5-30.1 83.1-45.6 130.2-45 97.4 1.3 191.1 70 223 171.8 4.6 14.5 7.7 29 9.4 43.4 47-142.7 216.9-329.2 352.7-273.9 49.5 20.2-51.3 92.8-53.1 146.1-1.3 40.7 40.9 83.1 39.8 123.8-1.7 62.6-56.5 100.4-62.3 162.7-2.8 29.7 46.9 79.8 38.8 108.5-16 56.5-82.3 97.2-93.2 154.9-12.7 67.7 42.6 141.7 17.1 205.7-14.5 36.4-83.7 47.3-121.7 36.2-82.4-24-111.5-81-166.4-132.2-9.4 13.1-34.4 73.2-50.2 108.2 4.9 30.4 7.6 56.2 8.5 70.2q0.2 3.1 0.3 6.2c-6.8-4.1-15.4-7.6-25.1-10.2q-0.2-2.3-0.5-4.7c-4.1-45.7-31.9-242.4-85.9-232.8-50.6 9-16.1 181-1.7 238.4-8.6 2.6-16.3 5.9-22.4 9.7-9.7-41.4-22.5-122.2-20.4-186.5-4.7 16.1-7.7 33.4-9.4 51.2zm512.4-1191.4l35.1 20.2-72.7 164.9-23.6-13.6 19.4-44.5-14.4-8.3-29.1 38.9-22.8-13.2zm-31.9 105.9l19.9-39.9c1.8-3.5 3.8-7.5 6.1-12.2 2.3-4.7 5.5-11.5 9.6-20.5l-1-0.6c-1.5 2.1-5.1 7.5-10.8 16-4 6-7.2 10.7-9.7 14.4l-24.8 36.7zm-56.6-152.4c12.1 5.6 19.7 12 22.8 19.2 3.2 7.2 2.3 16.1-2.6 26.5l-47.9 102.8q-7.3 15.7-18.6 19c-7.5 2.2-17.3 0.4-29.4-5.2l-28.6-13.3 75.7-162.3zm-71 140.4l5.3 2.5q4.5 2.1 8 0.5c2.3-1.1 4.3-3.4 6-6.9l47.8-102.6q2.5-5.4 1.5-9.1-1-3.7-5.5-5.8l-5.3-2.4zm-66.1-192.9l25.2 9.1-51.2 140.7q-2 5.7-1.2 8.6 0.9 2.9 4.8 4.4 3.9 1.4 6.5-0.3 2.6-1.7 4.7-7.3l51.2-140.7 25.1 9.1-50.9 139.8q-5.8 15.9-17 21.1-11.3 5.2-27.3-0.6-15.9-5.8-21.2-17.1-5.3-11.2 0.5-27zm-153-39.1l39.3 9-7.6 67.4-0.2 1.1q-0.2 0.9-1.1 6.3c-3.1 18.7-6.5 37.3-10.3 56.1l1.4 0.3c2.8-10.6 5.6-20.9 8.6-30.9 3-9.9 6.1-19.7 9.4-29.2l22.6-65.8 38 8.8-40.3 174.5-23.8-5.5 21.6-90.7 0.6-2.4q1.2-5.4 4.9-19.9 3.6-14.5 8.2-32.3l-1.3-0.3q-3.8 13.3-7.5 25c-2.4 7.7-4.5 14.1-6.2 19.1l-34.9 98.1-24.8-5.7c4.1-36.6 7.6-66.5 10.6-89.7 3-23.1 6-42.9 8.8-59.2l-1.5-0.4c-1.2 5.8-2.8 13.4-4.6 22.9q-4.6 22.7-5.3 25.7l-22.5 97.3-22.4-5.1zm-133.3-17.1c13.2 1.2 22.6 4.6 28 10.2q8.2 8.5 6.6 25.9l-1.8 20.8c-0.8 9.2-3.4 16-7.9 20.4-4.5 4.3-11.5 6.9-20.9 7.6l-0.1 1c8.7 0.9 15.1 3.6 19.1 8q6 6.7 4.9 18.8l-3.1 36.4c-0.7 8-0.9 14.6-0.6 20q0.4 8 2.4 13.1l-28-2.5c-1-2.9-1.5-6.4-1.7-10.4q-0.3-6.1 0.5-15.1l0.7-7.9 3.4-39q0.5-5.6-2.8-8.7c-2.3-2-5.9-3.2-10.9-3.7l-1.1-0.1-7.2 83.2-26.6-2.3 15.7-178.4zm7.9 33.2c0.4-3.9-0.2-6.9-1.7-9q-2.2-3.1-7.2-3.6l-5.8-0.5-4.6 52.7 5.8 0.5q5 0.4 7.7-2.3c1.8-1.8 2.9-4.7 3.3-8.6zm-144.4-37.6l40.5-0.7 22.6 178.7-27.2 0.5-6.3-48.1-16.6 0.3-4.9 48.3-26.3 0.5zm27.2 107.2l-3.6-44.5q-0.3-5.8-1-13.6c-0.4-5.2-1.2-12.7-2.3-22.5h-1.2c-0.2 2.6-0.5 9-1 19.3-0.3 7.2-0.6 12.9-0.9 17.3l-2.4 44.2zm-123.6-102.1c13.2-1.1 23 0.6 29.3 5.2 6.4 4.7 10 12.8 11 24.3l9.9 113q1.5 17.2-6.6 25.7c-5.5 5.7-14.8 9.1-28 10.2l-31.5 2.8-15.6-178.4zm8.7 157.1l5.9-0.5q4.9-0.5 7.1-3.6c1.5-2.1 2.1-5.1 1.8-8.9l-9.9-112.8q-0.5-5.9-3.3-8.6-2.7-2.7-7.6-2.2l-5.9 0.5zm-170.9-132.6l39.9-7.7 23.7 70.2q6.4 18.9 12.7 39c4.1 13.4 8.3 27 12.3 41l1.4-0.4q-4.6-21.3-8.1-38-3.4-16.5-4.6-22.3l-18.9-93.2 21.7-4.2 34.2 175.9-38.8 7.5-31.6-94.7q-8.1-24.4-11.9-36.2c-2.6-7.9-4.7-14.5-6.3-20l-1.8 0.4q4.1 19.2 6.4 30.1 2.3 10.9 2.9 13.8l22.3 110.5-21.3 4.1zm-103.3 30.1l38.5-12.6 73.9 164.4-25.9 8.4-20.1-44.2-15.8 5.2 9.4 47.6-25 8.1zm57.4 94.6l-16.4-41.5q-2.1-5.5-5-12.7-2.9-7.2-8.8-20.9l-1.1 0.4c0.5 2.5 2.1 8.8 4.7 18.7 1.7 7 3.1 12.5 4.2 16.8l10.6 43zm-175.5-51.5l24.7-9.9 29.7 73.6 1-0.4-10.6-81.4 24-9.6 10.3 84 56.8 82-26.1 10.6-50.8-76.8-1 0.4 33.8 83.6-24.7 10zm-92.2 50.2q3.7-11.7 18.8-19.4 15.3-7.7 27-3.9 11.7 3.7 19.4 18.8l16.2 31.7-23.7 12-17.2-33.6q-2.6-5.2-5.4-6.5-2.8-1.3-6.6 0.6c-2.4 1.3-3.8 2.9-4.2 4.8q-0.5 2.9 2.3 8.2l5.8 11.5q3 5.9 5.6 9.1c1.7 2.2 3.5 3.7 5.4 4.6l43.9 22.3c5.5 2.8 9.8 5.6 12.9 8.6 3.1 3 5.8 6.6 8 11l10.7 20.9q7.6 15 3.8 26.8-3.8 11.8-19.1 19.6-15.1 7.6-26.7 3.9-11.7-3.9-19.4-19l-17.8-34.9 23.7-12.1 18.2 35.8q2.8 5.4 5.4 6.8c1.8 0.9 3.9 0.7 6.4-0.5q3.8-2 4.4-5 0.5-3.1-2.2-8.4l-8.5-16.6q-1.6-3.2-4.1-5.8-2.5-2.5-6.1-4.4l-46.2-23.8q-6-3.1-10.2-7.5c-2.8-2.9-5.4-6.8-7.9-11.6l-8.8-17.2q-7.6-15.1-3.8-26.8zm24.1 187l-92.2-153.5 22.8-13.7 92.2 153.5zm445.3 259.1c-76.5 6-173.4 63.5-203.3 166-12.7 43.7-19.4 82.1-10.6 122.2-10.1-22.3-16.5-46.7-18.5-72.2-54.1-141.4-223.9-326-309.4-290.8-45.4 18.6 44.3 63.9 45.9 117.2 1.3 40.7-36.9 83.1-35.9 123.9 1.5 62.6 51 100.3 56.4 162.7 2.5 29.6-42.6 79.8-35.2 108.4 14.5 56.6 74.5 97.2 84.3 155 11.5 67.6-45.5 129.3-22.5 193.3 13.2 36.4 73.9 35.4 106.9 20.4 57.5-26.1 102-77.7 147.1-126.1-20.7-28.9-42.4-59-62-88.7-7.9 8.8-15.2 18.2-28.1 22.5-21.8 7.3-39.7-22.7-61.7-18-21.9 4.7-47.1 36.7-64.8 42 18.9-27.7 47.6-61.5 68.3-65.9 20.8-4.4 33.2 27 53.8 20.1 8.8-3 15.2-10.2 21.1-18.4-24.6-39-44.5-76.8-52.2-109.7-6-25.4 4.8-55.9 17.6-86.2-1.8-9-4.5-17.2-11.4-22.6-26.5-21-49.4-10.5-76-31.4-24.4-19.2-17.3-58.3-40.1-79.5-22.6-21.1-68.8-28.2-88.3-44.2 37.5 2.9 88.1 12.7 109.5 32.7 21.5 20 8.5 53.9 31.6 72.1 25.1 19.7 57.5 4.8 82.6 24.6 3.7 2.9 6.1 6.7 7.8 11 5.5-13.9 10.1-27.2 12.1-39.4 4.4-27.4 7-57-10.7-78.4-14.3-17.2-47-3.7-62.3-20.1-21.7-23.4-9.3-56.8-31-80.3-20-21.6-52.8-6-74.4-25.8-21.6-19.7-35.4-69.4-41.3-106.6 17.5 18.2 28.3 63.6 51.1 84.5 22.9 21 61.3 10.8 82.4 33.7 23 24.8 14.3 48.5 37.3 73.3 16.2 17.3 50.8 3.1 65.9 21.3 18.8 22.6 17.4 70.4 12.7 99.4-8.3 51.6-50.7 123.2-41.3 156.7 45.6 163.9 111.4 168.2 160.4 308.6 12.7-62.7 25.5-129.9 61-152.9-16.3-6.9-32.7-10.1-44.1-7.7 24-18.6 68.1-25.1 100.2 8.3 26.1 27.1 40.9 61.2 45.5 98.7 4.7 37.5-7.4 76.8-8.2 111.5-1 44.6 8.1 89.5 8.4 134.4 0.2 44.8-8.2 89.6-4 134.1 5.2 55 44.3 168.5 134.1 150 85.4-17.5 109.9-106.7 140.6-183.4 4.6-11.4 10-22.3 16.1-32.4-21.5 1.5-44.4 14.5-67.2 13.1-28.1-1.7-44.5-22.3-44.5-49.7-6.5 13.2-11.9 27.6-16.7 42.9-4.3 13.6-16.2 31.2-35.2 51.7-14.8 15.9-35.3 26.2-63.3 0 52.7 16.2 58.6-27.2 66.7-53 10.7-33.7 27.7-72.2 54.5-101.7 1.7-13 3-26 2.7-41.6-0.7-41-11.3-110.7-6.6-155.1 4.6-44.3 19.4-84.6 45.5-116.7 32.1-39.5 76.3-31.8 100.2-9.8-9.2-2.3-21.6-0.3-34.6 4.9 37.5 21.4 50.6 90.2 63.6 154.4 49-140.4 114.7-144.7 160.4-308.6 9.4-33.5-33-105.1-41.4-156.7-4.6-29-6.1-76.8 12.8-99.4 15.1-18.2 49.7-4 65.8-21.3 23.1-24.8 14.4-48.5 37.3-73.3 21.1-22.9 59.5-12.7 82.5-33.7 22.8-20.9 33.5-66.3 51.1-84.5-6 37.2-19.7 86.9-41.3 106.6-21.7 19.8-54.5 4.2-74.4 25.8-21.7 23.5-9.3 56.9-31.1 80.3-15.2 16.4-47.9 2.9-62.2 20.1-17.8 21.4-15.1 51-10.7 78.4 2 12.2 6.5 25.5 12.1 39.4 1.7-4.3 4.1-8.1 7.8-11 25.1-19.8 57.4-4.9 82.5-24.6 23.1-18.2 10.2-52.1 31.7-72.1 21.3-20 71.9-29.8 109.5-32.7-19.6 16-65.7 23.1-88.3 44.2-22.8 21.2-15.7 60.3-40.1 79.5-26.6 20.9-49.5 10.4-76 31.4-6.9 5.4-9.7 13.6-11.4 22.6 12.7 30.3 23.6 60.8 17.6 86.2-7.8 32.9-27.6 70.7-52.2 109.7 5.9 8.2 12.3 15.4 21.1 18.4 20.5 6.9 33-24.5 53.8-20.1 20.7 4.4 49.4 38.2 68.3 65.9-17.7-5.3-42.9-37.3-64.8-42-22-4.7-40 25.3-61.7 18-13-4.3-20.3-13.7-28.1-22.5-19.6 29.7-41.3 59.8-62 88.7 45.1 48.4 89.6 100 147 126.1 33.1 15 93.8 16 106.9-20.4 23.1-64-34-125.7-22.5-193.3 9.9-57.8 69.9-98.4 84.4-155 7.3-28.6-37.7-78.8-35.2-108.4 5.3-62.4 54.9-100.1 56.4-162.7 1-40.8-37.2-83.2-36-123.9 1.6-53.3 91.3-98.6 46-117.2-85.6-35.2-255.3 149.4-309.4 290.8-2.1 25.5-8.4 49.9-18.5 72.2 8.7-40.1 2.1-78.5-10.7-122.2-29.8-102.5-126.7-160-203.2-166-41.8-3.3-97.5 25.4-131.2 50.1-33.6-24.7-89.3-53.4-131.1-50.1zm534.7 697.2c9.5 21.5 47 33.8 67.9 31.3 42.1-5 52.6 13 80.5 34.5-37.7-14.6-63.7-22.4-103.5-14.6-20.6 4-62.7-17.8-67.9-40.8-5.3-23-1.1-49.1 24-68.9-5 14.3-12.3 33-1 58.5zm-403.6-451.2c-75 0-67.3-56.6-150.2-58.3 2.8-3.8 22.3-6.6 50.2-8.5 27.8-1.9 63.9 23.2 100 23.2 36.2 0 72.3-25.1 100.1-23.2 27.8 1.9 47.3 4.7 50.2 8.5-82.9 1.7-75.2 58.3-150.3 58.3zm0-112c15.6 0 31.7-8.1 50.8-8.1 32.6 0 60.9 8.8 74.8 21.6-12.6-3.5-27.3-5.6-43.1-5.6-40.9 0-57.2 32.2-82.5 32.2-25.2 0-41.5-32.2-82.5-32.2-15.7 0-30.4 2.1-43.1 5.6 13.9-12.8 49.1-21.6 74.9-21.6 25.8 0 35.1 8.1 50.7 8.1zm-144.5 297q-1.2 0.8-2.4 1.5c-7-31.4-32.4-76.5-71.1-122-34-40-71.4-72.1-102.8-90.4 32.3 7.5 76.7 34.7 116.6 73.8 58.2 57.3 85.1 118.9 59.7 137.1zm-25.2 38.4q-0.1 0.1-0.3 0.2c1.7-8.4 0.3-19-3.9-30.9-23.8 9.9-65.8-9.5-96-44.9-28.4-33.5-36.8-70.1-21.4-86.7-11.2-7-22.2-12.8-32.5-17.1 30 0 74.6 22.7 112.1 59.6 48.6 47.7 67.4 101.5 42 119.8zm-78-99.9c7.8-5.6 19-5.9 28.3-1.6q-7-7.8-14.8-15.4c-11.5-11.4-23.5-21.6-35.4-30.6-13.9 12.5-7.7 42.3 15.2 69.6-3-8-0.7-16.7 6.7-22zm571.6-79.5c-10.3 4.3-21.3 10.1-32.6 17.1 15.5 16.6 7.1 53.2-21.3 86.7-30.2 35.4-72.2 54.8-96 44.9-4.2 11.9-5.6 22.5-4 30.9q-0.1-0.1-0.3-0.2c-25.4-18.3-6.5-72.1 42.1-119.8 37.5-36.9 82.1-59.6 112.1-59.6zm-3-69.9c-31.4 18.3-68.8 50.4-102.8 90.4-38.7 45.5-64.1 90.6-71.1 122q-1.2-0.7-2.4-1.5c-25.4-18.2 1.4-79.8 59.7-137.1 39.8-39.1 84.3-66.3 116.6-73.8zm-142.8 208.4c15.6 5.8 40.3-3.3 61.8-22-9.2 4.1-20.3 3.7-27.9-1.8-6.4-4.6-9-11.6-7.7-18.6-11.4 14.7-20.3 29.2-26.2 42.4zm91.6-106.6c-12 9-23.9 19.2-35.5 30.6q-7.8 7.6-14.7 15.4c9.3-4.3 20.5-4 28.3 1.6 7.4 5.3 9.7 14 6.7 22 22.9-27.3 29.1-57.1 15.2-69.6zm-481.6 82.8c-7.6 5.5-18.7 5.9-27.9 1.8 21.4 18.7 46.2 27.8 61.8 22-5.9-13.2-14.8-27.7-26.2-42.4 1.3 7-1.3 14-7.7 18.6zm427.4 653.2c3.2-6.1 6-12.2 8.4-18.2q0.4 0.3 0.8 0.5c4.2 6.6 8.3 12.6 12.3 17.8q1.6-5.2 3.1-11c6.5 2.3 13.7 4.1 21.5 5.5-4.4 19.5-9.9 36.8-16.3 51.4-10.8-11.1-21.7-25-32.4-41.2q1.3-2.4 2.6-4.8zm15.9-82.7c9.7 0.6 39.9-46 56.7-44.7q1.9 0.2 3.3 0.3c-18.8-14.6-43.9-26.7-71.7-28.6-35.1-2.5-56.5 7.1-76.2 19.6q1.5 0 2.9 0.1c35 2.1 59.5 48.1 85 53.3zm60.2-44.3q0 0 0 0-0.1 0 0 0zm0 0c0.7 0 10.3 0.7-0.2-0.1q0.1 0 0.2 0.1zm-672.1-223.3c-5.2 23-47.3 44.8-67.9 40.8-39.8-7.8-65.9 0-103.5 14.6 27.9-21.5 38.4-39.5 80.5-34.5 20.8 2.5 58.4-9.8 67.9-31.3 11.3-25.5 3.9-44.2-1-58.5 25.1 19.8 29.2 45.9 24 68.9zm522.2 240.5c-18.4-1.1-31.8 12.8-35.2 31.6-3.3 18.7 4.8 34 23.3 35.1 25 1.5 49-14.7 74-13.2 25 1.5 42.6 20.3 67.7 21.8 18.9 1.2 31.8-12.4 35.2-31.6 3.4-19.2-2.8-34.2-23.3-35.1-20.5-0.8-28.4 38.2-55.7 36.5-11.4-0.7-25.3-10.4-40.6-21.1-13.1-9.1-28.1-22.9-45.4-24zm10 20.7c14.1 0 25.5 7.5 25.5 16.7 0 9.2-11.4 16.7-25.5 16.7-14 0-25.4-7.5-25.4-16.7 0-9.2 11.4-16.7 25.4-16.7zm-293.6-311.2c-3.8-6-8.2-11.5-13.3-16.5-1.9-1-3.9-1.8-6.2-2.1-53.9-9.7-81.8 187-85.9 232.7-6.9 77.2-2.3 145.2 10.3 186.3 26.3-34.1 54.3-96.2 74.8-170.9 10-36.7 41.4-178 20.3-229.5zm422.3 321.4c12.4 0 20.7 7.5 18.6 16.7-2.1 9.2-13.9 16.7-26.2 16.7-12.4 0-20.8-7.5-18.6-16.7 2.1-9.2 13.9-16.7 26.2-16.7z"/>
			</g>
		</g>
		<g id="Group 10">
		</g>
		<g id="Group 12">
		</g>
		<g id="Group 14">
		</g>
		<path id="Object 7" fill-rule="evenodd" class="s2" d="m947.9 2151.2c-423-92.4-881-464.5-881-938.5v-1066h298.7c132-73.6 344-121.5 582.3-121.5 238.4 0 450.4 47.9 582.4 121.5h298.7v1066c0 474-458 846.1-881.1 938.5zm-156.8-298.9c8.1 89.1 59.7 218.3 162.8 222.1 107.3 3.9 180.1-112.2 211-204.1q0-0.1 0-0.1c13.1 15.8 27.2 31.5 42.3 47.1 15.6-33.3 28.4-67 38.2-101.3 45.1-18.2 82.3-68.3 65.7-117.5 1.9-35.1-16.8-62.2-42.5-81.5q-1.5-34.8-6.7-70.6c6-13.9 11.9-27.8 17.8-41.7 58.5 58.2 122.5 115.9 198.9 112.2 68.1-3.3 126.6-48.2 126.2-121.7-0.4-57.5-33.4-103.8-24.1-164.5 10.1-65 96.8-90.8 95.1-166.7-1-50.1-38.6-71.4-40.2-101.2-3-60.6 64.9-98.1 64.3-166.8-0.4-46.5-41.3-95.1-41.5-122.6-0.3-42.7 67.6-78.5 67.7-132.6 0-54.3-66.5-74.4-118.4-73.4-122.7 2.5-229.1 111.6-290.5 208.4-50.3-82-141.2-138.5-238.7-139.7-45.6-0.6-91.3 11.2-130.6 34.5-39.2-23.3-84.9-35.1-130.5-34.5-97.5 1.2-188.4 57.7-238.7 139.7-61.4-96.8-167.8-205.9-290.5-208.4-51.9-1-118.4 19.1-118.4 73.4 0 54.1 68 89.9 67.7 132.6-0.2 27.5-41.2 76.1-41.6 122.6-0.5 68.7 67.4 106.2 64.3 166.8-1.5 29.8-39.1 51.1-40.2 101.2-1.6 75.9 85.1 101.7 95.1 166.7 9.4 60.7-23.6 107-24 164.5-0.4 73.5 58.1 118.4 126.2 121.7 76.3 3.7 140.4-54 198.8-112.2 6 13.9 11.8 27.8 17.9 41.7-19.3 132-0.2 254.3 54.7 370.9 40.9-42.2 74.1-84.8 100.9-129.4-0.6 21.5-0.5 43 1.5 64.4zm-581.2-1547.4l141.5 214.6c167.4-113.6 373.8-180.9 596.5-180.9 222.8 0 429.1 67.3 596.6 180.9l141.5-214.6c-208.9-136.7-463.6-217.1-738.1-217.1-274.4 0-529.1 80.4-738 217.1z"/>
	</g>
</svg>