<?xml version="1.0" encoding="UTF-8"?>
<!DOCTYPE svg PUBLIC "-//W3C//DTD SVG 1.1//EN" "http://www.w3.org/Graphics/SVG/1.1/DTD/svg11.dtd">
<!-- Creator: CorelDRAW X7 -->
<svg xmlns="http://www.w3.org/2000/svg" xml:space="preserve" width="1080px" height="1080px" version="1.1" style="shape-rendering:geometricPrecision; text-rendering:geometricPrecision; image-rendering:optimizeQuality; fill-rule:evenodd; clip-rule:evenodd"
viewBox="0 0 1080 1080"
 xmlns:xlink="http://www.w3.org/1999/xlink">
 <defs>
  <style type="text/css">
   <![CDATA[
    .fil0 {fill:#FEFEFE}
    .fil1 {fill:#DCDDDD}
    .fil3 {fill:#059C3C}
    .fil5 {fill:#3E1179}
    .fil4 {fill:#3E117A}
    .fil6 {fill:#451A77}
    .fil2 {fill:#DA0323}
    .fil7 {fill:#332C2B;fill-rule:nonzero}
   ]]>
  </style>
 </defs>
 <g id="Layer_x0020_1">
  <metadata id="CorelCorpID_0Corel-Layer"/>
  <g id="_1525220079520">
   <circle class="fil0" cx="540" cy="540" r="424"/>
   <path class="fil1" d="M540 0c298,0 540,242 540,540 0,298 -242,540 -540,540 -298,0 -540,-242 -540,-540 0,-298 242,-540 540,-540zm0 126c228,0 414,186 414,414 0,228 -186,414 -414,414 -228,0 -414,-186 -414,-414 0,-228 186,-414 414,-414z"/>
   <path class="fil2" d="M387 260l0 58 292 0 0 -60 -143 -54 -149 56zm-66 163c72,9 139,30 203,58l0 -149 -203 0 0 91zm424 0c-72,9 -139,30 -203,58l0 -149 203 0 0 91z"/>
   <path class="fil3" d="M461 787c0,0 64,-83 69,-91 12,-18 19,-30 29,-50 5,-9 21,-49 29,-49 19,-1 40,32 35,53 0,26 -46,63 -51,85 -1,6 -2,13 -1,19 2,14 26,29 43,29l7 0c101,-25 159,-166 209,-184 -238,-76 -365,16 -467,144 0,8 84,44 98,44zm-111 -52c57,-91 139,-157 262,-180 -22,-20 -46,-37 -74,-47 -49,26 -88,58 -123,92 -35,35 -65,74 -83,118 5,7 11,12 18,17zm-32 -29c40,-84 111,-151 201,-208 -92,-42 -188,-64 -292,-61 -17,98 11,188 91,269zm329 -155c65,-7 130,5 194,31 20,-50 21,-98 13,-147 -101,0 -202,23 -295,62 32,15 62,33 88,54z"/>
   <path class="fil4" d="M538 1031c0,-84 39,-99 111,-149 38,-27 67,-53 101,-85 35,-34 53,-65 79,-106 13,-20 24,-37 37,-56 5,-7 40,-48 40,-51 0,-3 -3,-4 -6,-4l-11 0c-79,0 -145,217 -277,217l-6 0c-21,0 -50,-23 -50,-41 0,-26 11,-44 23,-58 8,-10 29,-39 29,-54l0 -4c0,-11 -11,-22 -18,-27 -2,29 -63,108 -80,132 -25,32 -71,87 -71,141 0,47 58,119 99,145z"/>
   <path class="fil5" d="M240 630c-10,-20 -5,-25 -27,-37 -15,-8 -26,-18 -46,-9 21,31 39,42 59,82 12,38 130,201 200,214 2,-30 12,-55 24,-77 -56,-10 -123,-58 -159,-98 -19,-23 -36,-48 -51,-75z"/>
   <path class="fil6" d="M554 1000c24,-6 64,-53 67,-81 -36,17 -61,42 -67,81z"/>
   <path class="fil7" d="M221 925l34 -39 5 5 -34 39 -5 -5zm-11 -10l-6 -5 26 -7 7 -32 7 6 -8 30 -26 8zm-13 -11l-16 -16 4 -4 11 11 11 -12 -10 -10 4 -4 10 10 13 -13 -12 -11 4 -4 17 16 -36 37zm-34 -35l25 -34 -37 20 -7 -9 39 -33 4 5 -34 29 0 0 41 -21 5 5 -28 37 0 0 34 -29 5 5 -40 33 -7 -8zm-28 -36l-14 -19 5 -3 9 13 14 -9 -9 -12 5 -4 8 13 15 -11 -10 -13 5 -3 14 19 -42 29zm-26 -39l32 -34 0 0 -39 22 -3 -5 44 -26 6 10 -31 33 0 0 38 -22 3 6 -45 26 -5 -10zm-29 -57l6 -2 4 11 42 -19 3 7 -42 18 5 11 -5 2 -13 -28zm-4 -10l-8 -22 5 -2 6 15 15 -5 -5 -15 5 -2 6 14 16 -6 -6 -15 6 -2 8 22 -48 18zm-16 -47l-1 -4c-1,-2 -1,-3 -1,-5 0,-5 3,-9 10,-11 3,-1 6,-1 9,0 2,1 4,3 5,7l0 0c0,-3 0,-4 0,-6 1,-1 2,-3 4,-3 1,-1 3,-2 4,-2l6 -2c2,-1 4,-1 5,-2 1,0 2,-1 4,-2l2 7 -3 2c-1,0 -2,0 -4,1l-4 1 -5 2c-3,1 -5,3 -5,6 0,1 0,2 1,3l1 5 22 -6 2 7 -49 13 -3 -11zm6 3l16 -4 -1 -5c0,-2 -1,-3 -1,-4 -1,-2 -3,-3 -5,-3 -1,-1 -3,0 -5,0 -3,1 -5,2 -5,4 -1,1 -1,4 0,7l1 5zm-15 -37l50 -11 2 6 -50 12 -2 -7zm-4 -23l-1 -9 48 -20 1 7 -11 4 0 0 3 14 0 0 12 0 1 7 -53 -3zm34 -4l0 0 -2 -11 0 0 -26 10 0 0 28 1zm-40 -41l43 -16 0 0 -44 3 0 -7 51 -3 1 11 -43 16 0 0 44 -3 0 7 -51 3 -1 -11zm-2 -53l1 -13c1,-2 1,-4 1,-6 1,-2 2,-4 3,-5 2,-3 5,-4 8,-4 2,0 4,0 6,0l19 2c6,0 10,2 12,4 2,2 3,4 3,6 0,1 0,3 0,7l-2 13 -51 -4zm7 -7l39 4 1 -7c0,-4 -1,-6 -2,-7 -2,-2 -5,-2 -9,-3l-17 -1c-4,0 -7,0 -8,1 -2,1 -3,3 -4,7l0 6zm-3 -35l3 -23 6 1 -3 16 17 2 2 -15 5 1 -2 15 18 2 2 -16 6 1 -3 23 -51 -7zm40 -34l2 0c2,1 3,1 5,1 3,0 5,-2 6,-6 1,-1 1,-2 1,-4 -1,-2 -3,-4 -7,-5 -2,-1 -4,-1 -6,1 -1,1 -3,2 -4,3l-4 5c-2,1 -3,3 -5,4 -3,2 -7,2 -11,1 -5,-1 -8,-3 -9,-7 -1,-2 -1,-6 0,-10 1,-5 3,-8 6,-9 2,-2 6,-2 11,0l1 0 -2 7 -1 0 -2 -1c-4,-1 -7,1 -8,5 -1,4 1,7 6,8 2,1 5,0 8,-2 1,-2 3,-3 5,-5 1,-2 3,-4 4,-5 4,-3 8,-3 13,-2 9,2 12,8 10,18 -1,4 -3,7 -5,9 -3,2 -6,3 -10,2l-4 -1 -2 -1 2 -6zm-23 -50l2 -8 53 3 -2 7 -12 -1 0 0 -4 13 0 0 10 6 -2 7 -45 -27zm32 11l0 0 3 -10 0 0 -28 -3 0 0 25 13zm19 -28l2 -7 13 12 -2 4 -13 -9zm-22 -60c1,-2 2,-4 3,-5 1,-2 3,-3 5,-4 3,-2 7,-1 12,1 9,5 11,11 7,19l-3 6 20 10 -3 6 -46 -23 5 -10zm3 7l16 7 2 -5c2,-3 2,-5 1,-6 -1,-2 -2,-3 -5,-4 -3,-2 -5,-2 -7,-2 -1,1 -3,3 -4,5l-3 5zm9 -30l12 -20 5 3 -8 13 14 9 8 -13 5 2 -8 13 15 9 9 -14 5 3 -12 20 -45 -25zm27 -42l38 16 -28 -31 7 -9 42 30 -4 5 -37 -26 0 0 30 35 -4 5 -42 -17 0 0 36 26 -4 5 -41 -30 7 -9zm27 -36l8 -10c2,-1 3,-3 4,-4 5,-4 10,-3 16,2 3,2 5,5 5,7 0,2 0,4 -2,7l0 1c3,-3 6,-5 8,-4 3,0 5,1 8,4 2,1 3,3 4,4 2,3 3,6 2,9 -1,2 -3,4 -6,7l-8 11 -39 -34zm26 13l13 11 3 -4c3,-2 4,-5 4,-6 0,-2 -2,-4 -4,-7 -4,-3 -7,-3 -10,-1 -1,1 -2,2 -3,3l-3 4zm-17 -15l12 11 4 -4c1,-1 2,-2 2,-3 1,-3 0,-6 -3,-9 -4,-3 -8,-3 -12,1l-3 4zm26 -36l7 -7 43 30 -5 5 -10 -7 0 0 -10 9 0 0 6 11 -5 4 -26 -45zm22 25l0 0 8 -7 0 0 -22 -17 0 0 14 24zm11 -55l38 27 0 0 -28 -35 6 -4 31 40 -8 7 -38 -26 0 0 27 34 -5 5 -32 -41 9 -7zm56 -4l-3 -5 12 -8 14 22 -3 3c0,1 -1,2 -3,3 -1,1 -3,2 -5,3 -5,3 -9,4 -12,3 -3,0 -6,-3 -9,-8l-10 -16c-3,-4 -4,-8 -5,-10 0,-4 1,-7 4,-10 1,-1 2,-2 4,-3 4,-3 8,-4 11,-3 3,0 6,2 8,6l1 2 -6 4 0 -1c-1,-1 -1,-2 -2,-2 -2,-3 -5,-4 -9,-2 -3,2 -4,4 -4,7 0,1 1,3 1,4 1,1 2,2 3,4l9 15c2,3 4,6 5,6 3,2 5,1 8,-1 1,0 2,-1 3,-2l2 -3 -8 -12 -6 4zm6 -40l6 -3 17 30 3 3c2,5 6,6 10,3 3,-2 4,-5 2,-9 0,-2 -1,-3 -2,-5l-17 -29 6 -4 18 30c1,3 2,5 3,6 1,2 1,4 1,6 -1,4 -4,8 -8,10 -5,3 -9,4 -13,2 -2,-1 -4,-2 -5,-4 -1,-1 -2,-3 -3,-5l-18 -31zm50 -25l30 35 0 0 -18 -41 6 -2 21 46 -10 5 -30 -35 0 0 18 40 -6 3 -21 -47 10 -4zm41 -17l8 -3 28 45 -7 2 -6 -10 0 0 -13 4 0 0 2 12 -7 3 -5 -53zm9 33l0 0 11 -4 0 0 -14 -24 0 0 3 28zm35 -46l23 40 0 0 -10 -43 6 -1 12 50 -11 2 -23 -39 0 0 10 42 -6 2 -12 -50 11 -3zm50 -10l12 -1c2,0 4,-1 6,0 2,0 4,0 6,1 3,2 5,4 6,7 0,2 1,4 1,6l2 19c1,6 0,10 -1,13 -2,2 -4,3 -6,4 -1,0 -3,0 -6,1l-14 1 -6 -51zm8 5l4 40 7 -1c4,-1 6,-2 7,-4 1,-2 1,-5 0,-9l-2 -17c0,-4 -1,-6 -2,-8 -2,-1 -4,-2 -8,-2l-6 1zm45 -9l9 0 13 51 -8 0 -2 -12 0 0 -14 1 0 0 -2 11 -7 0 11 -51zm-1 34l0 0 11 -1 0 0 -6 -27 0 0 -5 28zm35 -34l23 1 -1 6 -16 -1 -1 16 15 1 0 6 -15 -1 -1 18 16 1 0 6 -24 -2 4 -51zm46 4l4 1c2,0 3,0 4,1 5,1 8,6 7,13 -1,3 -2,6 -3,8 -2,2 -5,3 -8,3l0 0c2,0 4,1 4,2 2,1 3,2 3,5 0,1 0,3 0,4l-1 6c0,3 0,4 0,6 0,1 0,2 1,4l-8 -1 0 -3c0,-1 0,-2 0,-4l0 -4 1 -5c0,-4 -1,-6 -4,-7 -1,-1 -2,-1 -3,-1l-5 -1 -3 23 -7 0 6 -51 12 1zm-5 5l-3 16 6 1c1,0 2,0 3,0 3,0 4,-1 5,-2 1,-1 1,-3 2,-6 0,-3 0,-5 -2,-6 -1,-1 -3,-2 -6,-2l-5 -1zm46 2l9 2 0 52 -7 -1 0 -12 0 0 -13 -3 0 0 -6 11 -6 -2 23 -47zm-9 32l0 0 11 3 0 0 1 -28 0 0 -12 25zm42 -25l7 2 -7 21 14 5 7 -21 7 2 -16 49 -7 -2 7 -23 -14 -4 -7 22 -7 -2 16 -49zm83 32l-2 5 -11 -4 -19 41 -6 -3 18 -41 -10 -5 2 -5 28 12zm11 6l21 11 -3 5 -14 -8 -8 15 13 7 -3 5 -13 -7 -9 15 15 8 -3 5 -21 -11 25 -45zm41 24l3 2c1,1 3,2 4,3 4,4 4,9 0,15 -2,3 -4,5 -6,6 -3,1 -5,0 -9,-1l0 0c2,1 3,3 4,4 0,1 0,3 0,5 -1,1 -2,3 -2,4l-3 6c-2,2 -2,3 -3,5 0,1 -1,2 -1,4l-6 -4 1 -3c0,-1 1,-2 1,-4l3 -4 2 -4c2,-3 2,-6 0,-8 -1,-1 -2,-1 -3,-2l-4 -3 -13 20 -6 -4 28 -43 10 6zm-8 2l-8 14 4 3c1,1 2,1 4,2 2,1 3,1 5,0 1,-1 2,-3 4,-5 1,-2 2,-4 1,-6 -1,-1 -2,-3 -5,-5l-5 -3zm52 30l-3 4 -10 -7 -27 37 -6 -5 28 -36 -10 -7 4 -5 24 19zm13 12l-33 39 -5 -4 33 -40 5 5zm18 16l-20 41 0 0 30 -32 5 5 -35 37 -8 -7 20 -42 0 0 -30 32 -5 -4 35 -38 8 8zm11 56l4 -4 10 11 -19 17 -3 -2c-1,-1 -2,-2 -4,-3 -1,-1 -3,-3 -4,-4 -4,-5 -5,-8 -5,-12 0,-3 3,-6 7,-10l14 -12c4,-4 7,-6 9,-7 4,-1 7,0 10,2 2,1 3,2 5,4 3,4 4,7 4,10 0,3 -2,6 -5,10l-1 1 -5 -6 1 0c1,-1 1,-2 2,-2 2,-3 2,-6 0,-9 -3,-3 -5,-4 -8,-3 -1,0 -2,1 -3,2 -1,0 -3,1 -4,2l-13 12c-3,3 -5,5 -6,6 -1,3 0,5 2,8 1,1 2,2 3,3l3 1 11 -10 -5 -5zm25 32l5 -4 9 13 -21 15 -3 -3c-1,-1 -2,-1 -3,-3 -2,-1 -3,-3 -4,-5 -4,-4 -5,-8 -4,-11 0,-3 3,-7 8,-10l15 -11c4,-3 7,-5 9,-5 4,-1 7,-1 10,2 2,1 3,3 4,4 3,4 4,8 4,11 0,3 -2,6 -6,9l-1 1 -5 -6 1 -1c1,0 2,-1 2,-1 3,-3 3,-6 1,-9 -2,-3 -5,-4 -7,-4 -1,1 -3,1 -4,2 -1,0 -2,1 -3,2l-15 11c-3,2 -5,4 -6,5 -1,3 -1,5 1,8 1,1 2,2 3,3l3 2 12 -9 -5 -6zm46 15l5 8 -38 37 -4 -7 9 -8 0 0 -7 -11 0 0 -11 3 -4 -5 50 -17zm-29 17l0 0 5 9 0 0 21 -19 0 0 -26 10zm46 12l3 7 -41 20 7 14 -5 2 -10 -19 46 -24zm-25 48l3 7 -18 0 -1 -4 16 -3zm51 17l4 12c1,2 2,4 2,5 0,3 0,5 0,7 -1,3 -3,5 -6,7 -2,0 -3,1 -5,2l-18 6c-6,2 -11,2 -13,1 -2,-1 -4,-2 -5,-4 -1,-1 -2,-3 -3,-7l-4 -12 48 -17zm-3 8l-37 13 2 6c1,4 3,6 5,7 2,0 5,-1 8,-2l17 -6c4,-1 6,-2 7,-4 1,-1 1,-4 0,-7l-2 -7zm18 42l3 9 -48 23 -2 -7 11 -5 0 0 -3 -13 0 0 -12 0 -1 -7 52 0zm-33 7l0 0 3 11 0 0 25 -12 0 0 -28 1zm41 38l-42 19 0 0 44 -6 1 6 -51 7 -1 -10 41 -20 0 0 -43 6 -1 -6 51 -7 1 11zm5 79l-6 0 0 -12 -45 2 -1 -7 46 -2 -1 -12 6 0 1 31zm-1 25l-1 4c0,2 0,3 0,5 -2,5 -6,7 -13,7 -4,-1 -7,-2 -9,-3 -2,-1 -3,-4 -3,-8l0 0c0,2 -1,4 -2,5 -1,1 -2,2 -4,3 -2,0 -3,0 -5,0l-6 0c-2,-1 -4,0 -6,0 -1,0 -2,0 -4,0l1 -7 3 0c1,0 2,-1 4,0l4 0 5 0c4,0 6,-2 7,-4 0,-1 1,-2 1,-4l0 -5 -23 -1 0 -7 51 3 0 12zm-6 -5l-16 -1 -1 5c0,1 0,3 0,4 1,2 2,3 3,4 1,1 3,1 6,2 3,0 5,-1 6,-2 1,-1 2,-4 2,-7l0 -5zm1 46l-1 9 -53 3 1 -7 12 -1 0 0 3 -13 0 0 -11 -5 1 -6 48 20zm-33 -7l0 0 -2 11 0 0 28 -1 0 0 -26 -10zm25 49l-46 3 0 0 43 10 -2 7 -50 -12 3 -11 46 -3 0 0 -43 -10 1 -6 50 11 -2 11zm-44 28l-3 -1c-1,0 -3,-1 -4,-1 -3,0 -6,2 -7,5 0,2 -1,3 0,4 0,3 2,5 5,6 3,1 5,1 7,0 1,-1 3,-2 4,-3l4 -4c2,-2 4,-3 5,-4 3,-2 7,-2 12,-1 4,2 7,4 8,8 1,2 1,6 -1,10 -1,4 -3,7 -6,9 -2,1 -6,1 -11,-1l-1 0 2 -7 1 0 3 1c3,1 6,-1 7,-4 1,-5 0,-8 -4,-9 -3,-1 -6,-1 -9,2 -1,1 -3,3 -5,5 -2,1 -4,3 -5,4 -4,2 -8,3 -13,1 -9,-3 -12,-9 -8,-18 1,-5 3,-7 5,-9 3,-2 6,-2 10,-1l4 1 2 0 -2 7zm15 55l-41 -8 34 25 -5 10 -47 -20 3 -7 41 19 0 0 -37 -28 3 -7 45 9 0 0 -41 -18 3 -6 47 21 -5 10zm-23 47l-45 -25 3 -7 45 25 -3 7zm-39 7l5 3 -8 12 -22 -13 1 -4c0,-1 1,-2 2,-4 0,-2 1,-4 3,-6 3,-4 6,-7 9,-8 3,0 7,1 12,4l16 10c4,3 7,5 8,7 3,3 3,6 2,10 -1,2 -2,4 -3,6 -2,3 -5,6 -8,7 -3,1 -6,0 -11,-2l-1 -1 4 -6 1 0c0,1 1,1 2,1 3,2 6,1 8,-2 2,-3 2,-6 1,-8 -1,-1 -1,-2 -3,-3 -1,-1 -2,-2 -3,-3l-16 -9c-3,-2 -5,-3 -7,-4 -3,0 -5,2 -7,5 0,1 -1,2 -1,3l-1 3 13 8 4 -6zm1 49l-3 4c-1,1 -2,2 -3,3 -4,3 -9,3 -14,-1 -3,-2 -5,-5 -6,-7 -1,-2 0,-5 2,-9l0 0c-2,2 -3,3 -5,4 -1,0 -3,0 -5,-1 -1,0 -2,-1 -4,-2l-5 -4c-2,-1 -3,-2 -5,-2 0,-1 -2,-1 -3,-2l4 -6 3 2c1,0 2,1 3,1l4 3 4 3c3,2 6,2 8,0 1,-1 2,-1 2,-3l3 -3 -18 -14 4 -6 41 31 -7 9zm-2 -7l-13 -10 -3 4c-1,1 -2,2 -2,3 -1,2 -1,4 0,6 0,1 2,2 4,4 2,2 4,2 6,2 1,-1 3,-2 5,-5l3 -4zm-25 39l-6 7 -46 -26 5 -6 11 7 0 0 9 -10 0 0 -7 -10 5 -5 29 43zm-24 -24l0 0 -7 9 0 0 23 14 0 0 -16 -23zm-26 26l-2 -2c-1,-1 -2,-2 -3,-2 -3,-2 -6,-2 -8,1 -1,1 -2,2 -3,3 -1,3 0,5 2,8 2,2 4,3 7,3 1,0 3,-1 5,-1l5 -2c3,0 5,-1 7,-1 3,0 7,2 10,5 3,3 5,7 4,11 -1,3 -3,5 -5,8 -4,4 -7,5 -11,5 -2,0 -5,-2 -9,-6l-1 -1 5 -5 1 1 2 2c3,3 6,3 9,0 3,-3 3,-7 0,-10 -2,-2 -5,-3 -8,-2 -3,0 -5,1 -7,2 -3,0 -5,1 -7,1 -4,1 -8,-1 -12,-5 -6,-7 -6,-13 2,-20 3,-3 6,-5 8,-5 4,-1 7,0 10,3l3 3 1 1 -5 5zm-8 53l-32 -40 5 -4 32 39 -5 5z"/>
  </g>
 </g>
</svg>
