<?xml version="1.0" standalone="no"?>
<!DOCTYPE svg PUBLIC "-//W3C//DTD SVG 20010904//EN"
 "http://www.w3.org/TR/2001/REC-SVG-20010904/DTD/svg10.dtd">
<svg version="1.0" xmlns="http://www.w3.org/2000/svg"
 width="291.000000pt" height="244.000000pt" viewBox="0 0 291.000000 244.000000"
 preserveAspectRatio="xMidYMid meet">

<g transform="translate(0.000000,244.000000) scale(0.100000,-0.100000)"
fill="#000000" stroke="none">
<path d="M1396 2333 c-10 -10 -7 -63 5 -86 7 -12 25 -37 42 -56 50 -58 59 -91
42 -148 -19 -61 -18 -63 5 -35 26 32 43 96 35 134 -5 21 -4 28 4 24 14 -9 14
-121 1 -147 -6 -10 -8 -19 -5 -19 14 0 45 88 45 127 0 39 -5 47 -84 127 -46
46 -87 82 -90 79z"/>
<path d="M1197 1917 c-8 -22 11 -108 33 -144 l19 -33 -217 0 c-119 0 -241 -3
-269 -6 l-53 -7 0 -128 0 -129 35 0 35 0 0 95 0 95 665 0 665 0 0 -95 0 -95
35 0 35 0 0 128 0 129 -142 6 c-79 4 -172 7 -208 7 -60 1 -63 2 -45 16 59 43
75 66 75 104 0 70 -2 70 -351 70 -246 0 -308 -3 -312 -13z m617 -33 c22 -21
20 -29 -11 -64 -34 -37 -113 -55 -113 -26 0 74 81 133 124 90z"/>
<path d="M1931 1348 c-27 -180 -49 -310 -56 -316 -2 -2 -6 6 -9 19 -8 35 -46
252 -46 261 0 4 -21 8 -46 8 l-46 0 7 -42 c10 -61 62 -296 75 -338 7 -19 14
-106 17 -192 l6 -158 43 0 44 0 0 146 c0 99 5 162 15 197 22 77 75 395 75 451
0 46 -30 116 -49 116 -4 0 -18 -69 -30 -152z"/>
<path d="M128 1333 c-30 -5 -35 -23 -18 -67 l10 -26 150 0 150 0 0 -324 0
-325 46 -7 c69 -10 163 1 193 23 14 11 34 35 44 54 16 31 17 61 15 314 -2 205
-6 286 -16 302 -26 46 -53 50 -307 56 -132 3 -252 3 -267 0z m480 -102 c23
-14 34 -147 27 -336 -8 -207 -11 -215 -82 -215 l-43 0 0 280 0 280 43 0 c23 0
48 -4 55 -9z"/>
<path d="M1023 1333 l-43 -4 0 -370 0 -369 39 0 39 0 7 175 7 175 45 0 c83 0
83 0 83 -175 0 -171 1 -175 70 -175 29 0 30 1 16 16 -18 17 -20 66 -21 481 0
134 -4 226 -10 232 -11 11 -168 21 -232 14z m157 -198 l0 -105 -55 0 -55 0 0
105 0 105 55 0 55 0 0 -105z"/>
<path d="M1475 1333 c-53 -14 -85 -36 -95 -68 -17 -51 -16 -575 1 -611 41 -85
225 -93 271 -11 10 16 13 96 13 317 0 320 -1 327 -55 355 -33 17 -104 27 -135
18z m85 -98 c17 -9 33 -27 37 -43 10 -35 10 -428 0 -464 -16 -60 -110 -73
-145 -20 -15 23 -17 56 -17 258 0 245 2 255 50 274 30 13 43 12 75 -5z"/>
<path d="M2149 1315 c-5 -11 -22 -110 -39 -220 -17 -110 -41 -267 -54 -350
-13 -82 -21 -154 -16 -158 4 -5 23 -7 41 -5 33 3 34 4 43 63 12 88 9 85 71 85
63 0 62 1 73 -85 l7 -60 43 -3 c49 -4 48 -9 27 114 -25 150 -52 322 -76 481
l-23 151 -44 4 c-37 3 -46 0 -53 -17z m74 -341 c10 -71 17 -135 17 -142 0 -8
-17 -12 -45 -12 -53 0 -52 -7 -30 153 25 190 34 190 58 1z"/>
<path d="M2410 966 l0 -376 103 0 c57 0 145 -3 195 -6 l92 -7 0 52 0 51 -150
0 -150 0 0 325 0 325 -29 0 c-16 0 -36 3 -45 6 -14 6 -16 -31 -16 -370z"/>
<path d="M810 1249 c0 -87 -2 -86 57 -40 29 23 33 32 33 74 l0 47 -45 0 -45 0
0 -81z"/>
<path d="M1070 500 c-24 -24 -26 -57 -4 -88 18 -26 56 -29 80 -5 20 20 1 32
-21 13 -24 -20 -45 -4 -45 35 0 41 21 55 52 36 26 -16 34 -8 13 13 -22 22 -51
20 -75 -4z"/>
<path d="M1217 502 c-22 -25 -21 -75 1 -95 40 -36 102 -7 102 48 0 56 -67 86
-103 47z m74 -23 c8 -16 8 -28 0 -45 -18 -41 -71 -25 -71 21 0 44 50 61 71 24z"/>
<path d="M1360 455 c0 -37 4 -65 10 -65 6 0 10 14 10 30 0 27 3 30 30 30 17 0
30 5 30 10 0 6 -13 10 -30 10 -20 0 -30 5 -30 15 0 10 11 15 35 15 19 0 35 5
35 10 0 6 -20 10 -45 10 l-45 0 0 -65z"/>
<path d="M1490 455 c0 -37 4 -65 10 -65 6 0 10 14 10 30 0 25 4 30 25 30 14 0
25 5 25 10 0 6 -11 10 -25 10 -16 0 -25 6 -25 15 0 10 10 15 30 15 17 0 30 5
30 10 0 6 -18 10 -40 10 l-40 0 0 -65z"/>
<path d="M1620 455 l0 -65 45 0 c25 0 45 5 45 10 0 6 -16 10 -35 10 -28 0 -35
4 -35 20 0 16 7 20 30 20 17 0 30 5 30 10 0 6 -13 10 -30 10 -20 0 -30 5 -30
15 0 10 11 15 35 15 19 0 35 5 35 10 0 6 -20 10 -45 10 l-45 0 0 -65z"/>
<path d="M1750 455 l0 -65 50 0 c28 0 50 5 50 10 0 6 -16 10 -35 10 -28 0 -35
4 -35 20 0 16 7 20 30 20 17 0 30 5 30 10 0 6 -13 10 -30 10 -20 0 -30 5 -30
15 0 10 11 15 35 15 19 0 35 5 35 10 0 6 -22 10 -50 10 l-50 0 0 -65z"/>
<path d="M710 260 l0 -170 735 0 735 0 0 170 0 170 -35 0 -35 0 0 -135 0 -135
-662 2 -663 3 -3 133 -3 132 -34 0 -35 0 0 -170z"/>
<path d="M1247 333 c-13 -12 -7 -24 19 -33 30 -12 22 -34 -9 -24 -17 5 -19 3
-11 -6 16 -17 48 -9 52 13 3 12 -4 20 -17 24 -12 3 -21 10 -21 15 0 6 7 8 15
4 8 -3 15 -1 15 4 0 11 -33 14 -43 3z"/>
<path d="M1330 298 c1 -36 3 -40 13 -27 7 8 20 18 30 22 28 10 17 41 -16 45
-26 3 -27 1 -27 -40z m40 17 c0 -8 -4 -15 -10 -15 -5 0 -10 7 -10 15 0 8 5 15
10 15 6 0 10 -7 10 -15z"/>
<path d="M1421 304 c-7 -19 -10 -38 -7 -41 3 -4 6 -1 6 5 0 16 33 15 49 0 9
-9 8 -1 -3 26 -9 21 -16 40 -16 42 0 2 -4 4 -8 4 -4 0 -14 -16 -21 -36z m29 1
c0 -8 -4 -15 -10 -15 -5 0 -7 7 -4 15 4 8 8 15 10 15 2 0 4 -7 4 -15z"/>
<path d="M1517 333 c-16 -15 -7 -62 13 -68 22 -7 40 1 40 17 0 6 -6 6 -15 -2
-20 -16 -39 -1 -33 26 3 13 11 18 26 17 14 -2 21 1 17 7 -7 11 -38 13 -48 3z"/>
<path d="M1610 300 c0 -37 2 -40 28 -39 23 2 24 2 5 6 -13 2 -23 11 -23 18 0
7 10 16 23 18 l22 4 -22 2 c-13 0 -23 5 -23 10 0 5 10 12 23 14 19 4 18 4 -5
6 -26 1 -28 -2 -28 -39z"/>
</g>
</svg>
