<?xml version="1.0" encoding="UTF-8" ?>
<!DOCTYPE svg PUBLIC "-//W3C//DTD SVG 1.1//EN" "http://www.w3.org/Graphics/SVG/1.1/DTD/svg11.dtd">
<svg width="640pt" height="640pt" viewBox="0 0 640 640" version="1.1" xmlns="http://www.w3.org/2000/svg">
<g id="#000000ff">
<path fill="#000000" opacity="1.00" d=" M 311.97 184.71 C 311.16 181.37 312.34 178.03 314.56 175.53 C 317.87 180.99 322.01 185.96 326.97 189.99 C 330.33 192.80 334.28 195.59 335.44 200.07 C 337.06 207.69 333.80 215.70 328.70 221.32 C 331.28 214.65 332.76 207.19 330.69 200.17 C 330.51 198.97 329.55 198.35 328.52 197.97 C 331.40 206.25 329.80 217.62 321.52 222.19 C 323.24 216.67 326.83 211.01 325.01 205.06 C 322.71 196.99 313.35 193.20 311.97 184.71 Z" />
<path fill="#000000" opacity="1.00" d=" M 287.30 228.64 C 312.19 228.06 337.09 228.59 361.98 228.53 C 365.29 228.68 368.99 229.22 371.33 231.83 C 374.13 235.13 374.05 240.20 371.79 243.77 C 368.95 248.28 364.13 250.84 359.77 253.63 C 377.79 253.83 395.81 253.75 413.83 253.83 C 414.51 265.35 413.78 276.89 413.88 288.41 C 410.67 288.38 407.46 288.34 404.25 288.24 C 404.22 280.03 404.19 271.83 404.16 263.62 C 360.10 263.66 316.05 263.79 271.99 263.81 C 259.57 263.99 247.14 263.51 234.74 264.13 C 234.73 272.24 234.73 280.36 234.66 288.48 C 231.35 288.38 228.03 288.27 224.75 287.80 C 224.99 276.46 224.49 265.10 225.16 253.77 C 248.15 253.70 271.14 253.80 294.13 253.64 C 289.42 246.28 285.53 237.56 287.30 228.64 M 354.45 236.48 C 352.14 240.02 351.40 244.30 350.25 248.31 C 356.23 248.58 363.10 247.11 366.66 241.84 C 368.30 239.83 367.89 237.15 367.40 234.81 C 363.32 232.66 357.61 232.85 354.45 236.48 Z" />
<path fill="#000000" opacity="1.00" d=" M 383.46 287.86 C 383.67 286.04 384.46 284.37 385.22 282.73 C 387.33 285.60 389.55 288.42 391.32 291.53 C 392.99 294.41 392.63 297.87 392.30 301.04 C 390.49 314.09 388.23 327.07 386.12 340.07 C 384.53 349.87 380.72 359.22 379.95 369.16 C 379.07 379.85 380.96 390.57 379.72 401.24 C 376.06 401.25 372.40 401.27 368.75 401.27 C 366.51 386.24 369.74 370.80 365.88 355.98 C 361.37 339.85 357.73 323.44 355.50 306.83 C 359.41 306.84 363.31 307.08 367.22 307.21 C 368.97 317.50 371.08 327.73 372.78 338.03 C 373.24 340.29 373.40 342.69 374.53 344.76 C 377.34 333.47 378.28 321.84 380.06 310.37 C 381.23 302.87 382.29 295.36 383.46 287.86 Z" />
<path fill="#000000" opacity="1.00" d=" M 409.42 304.85 C 413.51 304.90 417.61 304.93 421.71 304.89 C 426.97 337.10 431.99 369.35 436.94 401.61 C 433.08 401.60 429.23 401.57 425.38 401.59 C 424.53 395.56 423.88 389.50 423.21 383.45 C 418.11 383.43 413.02 383.41 407.92 383.54 C 407.36 389.58 406.57 395.60 405.70 401.61 C 401.81 401.59 397.92 401.61 394.04 401.57 C 399.05 369.32 404.14 337.07 409.42 304.85 M 409.72 370.69 C 413.47 370.78 417.22 371.00 420.97 371.21 C 419.65 357.87 417.78 344.58 415.99 331.30 C 411.06 343.79 411.41 357.54 409.72 370.69 Z" />
<path fill="#000000" opacity="1.00" d=" M 146.78 305.39 C 162.16 303.99 177.62 304.94 193.03 304.97 C 200.37 305.40 207.81 304.65 215.07 306.05 C 218.35 306.74 221.88 308.10 223.66 311.15 C 226.13 315.28 226.35 320.24 226.49 324.93 C 226.85 336.27 226.41 347.64 227.16 358.97 C 227.19 368.78 228.14 378.73 226.11 388.41 C 224.95 393.68 221.38 398.67 216.07 400.30 C 207.07 403.27 197.46 401.89 188.23 401.15 C 188.17 373.29 188.22 345.43 188.20 317.57 C 176.77 317.28 165.33 317.91 153.90 317.65 C 151.57 317.59 148.61 317.00 147.81 314.44 C 147.06 311.49 147.14 308.40 146.78 305.39 M 200.13 317.44 C 199.80 341.24 199.64 365.05 199.66 388.86 C 203.09 388.82 206.55 389.09 209.95 388.55 C 212.30 388.23 214.31 386.28 214.63 383.92 C 215.59 379.35 215.13 374.65 215.31 370.01 C 215.50 352.95 216.97 335.66 213.55 318.81 C 209.21 317.39 204.64 317.32 200.13 317.44 Z" />
<path fill="#000000" opacity="1.00" d=" M 238.23 305.21 C 242.04 305.28 245.85 305.34 249.67 305.37 C 249.67 309.69 249.68 314.02 249.67 318.34 C 245.96 321.41 242.25 324.48 238.25 327.17 C 238.13 319.85 238.28 312.53 238.23 305.21 Z" />
<path fill="#000000" opacity="1.00" d=" M 259.80 305.51 C 270.47 304.67 281.24 304.41 291.91 305.48 C 295.69 305.60 296.50 309.98 297.02 312.93 C 298.16 321.55 297.34 330.27 297.29 338.94 C 297.24 345.38 294.99 351.70 295.91 358.16 C 296.68 365.10 296.75 372.09 297.12 379.06 C 297.41 385.32 295.63 391.90 297.98 397.93 C 298.52 398.23 299.59 398.83 300.13 399.13 C 300.31 399.56 300.68 400.43 300.86 400.87 C 296.52 402.10 292.15 400.58 288.42 398.39 C 287.18 387.94 287.87 377.38 287.96 366.89 C 288.02 363.42 288.67 358.05 284.40 356.83 C 280.09 355.98 275.66 356.40 271.30 356.43 C 271.38 371.40 270.82 386.36 270.78 401.34 C 267.09 401.24 263.40 401.30 259.73 400.88 C 259.75 369.09 259.78 337.30 259.80 305.51 M 271.61 317.45 C 271.42 326.52 271.36 335.59 271.28 344.66 C 276.03 344.68 280.78 344.68 285.53 344.64 C 285.60 335.64 285.70 326.64 285.74 317.65 C 281.03 317.64 276.32 317.53 271.61 317.45 Z" />
<path fill="#000000" opacity="1.00" d=" M 321.34 305.67 C 328.96 303.80 338.05 304.37 344.01 310.02 C 348.24 313.94 347.44 320.18 348.10 325.40 C 348.84 344.26 348.23 363.15 348.13 382.03 C 347.80 386.92 347.64 392.37 344.29 396.30 C 340.80 400.39 335.08 401.42 329.98 401.67 C 323.72 401.98 316.78 400.44 312.54 395.51 C 310.62 393.41 310.26 390.52 309.91 387.83 C 308.10 365.92 309.28 343.93 309.41 321.98 C 309.57 318.02 310.16 313.81 312.58 310.54 C 314.72 307.84 318.08 306.50 321.34 305.67 M 326.98 316.90 C 323.24 317.28 319.70 319.75 318.83 323.54 C 317.22 330.93 318.10 338.54 317.84 346.04 C 317.96 358.20 317.25 370.43 318.76 382.53 C 320.49 389.97 330.90 392.05 336.15 387.09 C 339.12 383.87 339.20 379.13 339.43 375.00 C 339.44 360.34 339.76 345.68 339.37 331.02 C 339.05 327.58 339.25 323.78 337.20 320.81 C 335.00 317.56 330.73 316.31 326.98 316.90 Z" />
<path fill="#000000" opacity="1.00" d=" M 442.18 401.29 C 442.16 369.13 442.32 336.97 442.39 304.81 C 446.34 304.85 450.29 304.91 454.24 305.19 C 454.20 332.98 454.25 360.77 454.21 388.56 C 467.37 388.68 480.54 388.20 493.69 388.74 C 493.72 393.02 493.32 397.30 493.14 401.58 C 476.15 401.56 459.16 401.53 442.18 401.29 Z" />
<path fill="#000000" opacity="1.00" d=" M 274.43 409.49 C 278.20 408.37 281.95 410.55 283.42 414.07 C 282.61 414.25 280.98 414.62 280.17 414.81 C 278.82 411.69 274.04 411.09 272.73 414.52 C 271.95 417.44 271.65 421.91 274.98 423.37 C 277.55 424.36 279.22 422.05 280.24 420.09 C 281.29 420.41 282.34 420.75 283.39 421.09 C 282.08 424.51 278.82 427.21 274.97 426.27 C 266.88 425.03 266.66 411.39 274.43 409.49 Z" />
<path fill="#000000" opacity="1.00" d=" M 292.49 409.74 C 295.91 408.58 300.33 409.45 302.28 412.73 C 304.06 415.87 304.04 420.07 302.15 423.17 C 299.11 427.76 291.05 427.44 288.57 422.45 C 286.47 418.13 287.52 411.54 292.49 409.74 M 293.47 412.63 C 290.29 414.56 290.28 419.78 292.60 422.39 C 295.31 425.16 300.12 422.72 300.06 419.02 C 301.20 415.17 297.54 410.39 293.47 412.63 Z" />
<path fill="#000000" opacity="1.00" d=" M 308.45 409.50 C 312.19 409.50 315.94 409.50 319.68 409.50 C 319.68 410.43 319.68 411.38 319.69 412.33 C 317.04 412.32 314.38 412.32 311.73 412.32 C 311.73 413.63 311.73 414.95 311.73 416.27 C 314.02 416.27 316.32 416.27 318.63 416.28 C 318.63 416.98 318.62 418.39 318.62 419.09 C 316.32 419.08 314.02 419.09 311.73 419.09 C 311.73 421.43 311.73 423.77 311.73 426.11 C 310.92 426.12 309.28 426.12 308.46 426.13 C 308.45 420.58 308.46 415.04 308.45 409.50 Z" />
<path fill="#000000" opacity="1.00" d=" M 324.78 409.51 C 328.52 409.50 332.27 409.49 336.01 409.51 C 336.04 410.21 336.10 411.61 336.13 412.31 C 333.46 412.32 330.79 412.32 328.12 412.32 C 328.12 413.63 328.11 414.95 328.12 416.27 C 330.38 416.27 332.65 416.28 334.92 416.29 C 334.90 417.00 334.87 418.40 334.85 419.10 C 332.60 419.09 330.36 419.09 328.12 419.09 C 328.11 421.43 328.11 423.77 328.12 426.11 C 327.29 426.11 325.61 426.12 324.78 426.12 C 324.80 420.58 324.78 415.04 324.78 409.51 Z" />
<path fill="#000000" opacity="1.00" d=" M 341.10 409.51 C 345.16 409.50 349.23 409.50 353.30 409.50 C 353.29 410.21 353.28 411.62 353.28 412.33 C 350.32 412.32 347.37 412.33 344.42 412.32 C 344.41 413.52 344.41 414.72 344.41 415.92 C 347.15 415.94 349.90 416.00 352.65 416.07 C 352.64 416.76 352.63 418.12 352.63 418.80 C 349.89 418.80 347.15 418.79 344.42 418.79 C 344.42 420.29 344.41 421.80 344.42 423.31 C 347.46 423.31 350.50 423.31 353.55 423.32 C 353.54 424.25 353.53 425.18 353.53 426.12 C 349.38 426.10 345.24 426.11 341.10 426.13 C 341.09 420.59 341.09 415.04 341.10 409.51 Z" />
<path fill="#000000" opacity="1.00" d=" M 358.70 409.50 C 362.77 409.50 366.83 409.50 370.90 409.50 C 370.91 410.21 370.91 411.62 370.91 412.32 C 367.97 412.32 365.04 412.32 362.10 412.32 C 362.09 413.53 362.09 414.74 362.08 415.95 C 364.81 415.95 367.53 415.94 370.26 415.95 C 370.27 416.66 370.28 418.08 370.29 418.80 C 367.56 418.80 364.83 418.80 362.10 418.79 C 362.09 420.30 362.09 421.80 362.09 423.32 C 365.13 423.31 368.17 423.31 371.22 423.33 C 371.20 424.25 371.19 425.19 371.18 426.12 C 367.02 426.11 362.86 426.10 358.71 426.13 C 358.72 420.58 358.73 415.04 358.70 409.50 Z" />
<path fill="#000000" opacity="1.00" d=" M 224.61 420.87 C 227.84 420.81 231.08 420.76 234.32 420.75 C 234.43 432.12 234.59 443.49 234.74 454.87 C 291.11 455.41 347.49 455.27 403.86 455.36 C 404.03 443.83 403.58 432.28 404.12 420.75 C 407.28 420.77 410.44 420.77 413.61 420.78 C 413.56 435.57 414.02 450.37 413.92 465.15 C 351.01 465.16 288.09 465.14 225.18 465.21 C 224.58 450.43 224.67 435.65 224.61 420.87 Z" />
<path fill="#000000" opacity="1.00" d=" M 293.01 435.10 C 293.70 430.93 300.45 431.75 301.09 435.69 C 299.05 435.09 297.07 434.32 294.98 433.91 C 294.91 436.86 298.49 436.39 300.25 437.77 C 301.27 439.13 300.51 440.80 300.38 442.31 C 297.27 443.67 293.13 443.32 292.22 439.40 C 294.58 439.50 298.09 443.39 299.09 439.37 C 296.94 438.27 292.98 438.34 293.01 435.10 Z" />
<path fill="#000000" opacity="1.00" d=" M 339.66 432.53 C 342.41 432.53 345.16 432.47 347.90 432.79 C 346.57 435.07 343.81 434.10 341.69 434.36 L 341.71 436.62 C 343.40 436.61 345.09 436.61 346.78 436.62 C 346.79 437.06 346.79 437.94 346.79 438.38 C 345.09 438.38 343.39 438.38 341.70 438.39 C 341.70 439.07 341.70 440.42 341.71 441.10 C 343.96 441.16 346.30 440.95 348.40 441.98 C 345.70 443.44 342.58 442.77 339.66 442.89 C 339.67 439.44 339.67 435.98 339.66 432.53 Z" />
<path fill="#000000" opacity="1.00" d=" M 304.65 432.50 C 307.45 432.63 312.71 431.61 312.42 435.94 C 312.55 439.11 308.91 438.90 306.73 439.21 C 306.69 440.61 306.63 442.02 306.56 443.43 L 304.74 442.49 C 304.49 439.16 304.69 435.82 304.65 432.50 M 306.71 434.11 C 306.72 435.25 306.73 436.40 306.75 437.56 C 308.20 437.36 309.52 436.85 310.69 436.02 C 310.10 434.20 308.24 434.34 306.71 434.11 Z" />
<path fill="#000000" opacity="1.00" d=" M 314.06 443.35 C 315.23 439.70 316.49 436.06 318.10 432.58 C 318.59 432.57 319.55 432.55 320.04 432.54 C 321.70 436.01 322.98 439.66 324.26 443.30 C 322.55 443.11 321.50 441.99 320.78 440.53 C 319.64 440.52 318.51 440.52 317.38 440.53 C 316.82 442.09 315.66 443.04 314.06 443.35 M 317.74 438.77 C 318.42 438.77 319.79 438.77 320.47 438.78 C 320.00 437.48 319.52 436.18 319.06 434.90 C 318.62 436.19 318.18 437.47 317.74 438.77 Z" />
<path fill="#000000" opacity="1.00" d=" M 330.92 443.06 C 325.63 442.29 325.67 433.02 331.00 432.42 C 333.52 431.77 335.15 433.77 336.23 435.71 C 334.00 436.05 331.81 433.02 329.88 434.86 C 328.70 436.77 328.64 440.09 330.84 441.33 C 332.75 441.10 334.07 439.40 335.99 439.12 C 335.45 441.45 333.57 443.66 330.92 443.06 Z" />
</g>
<g id="#ffffffff">
</g>
</svg>
